<svg width="97" height="25" viewBox="0 0 159 42" xmlns="http://www.w3.org/2000/svg"><path d="M68.07 26.157V5.595H51.787v20.562H68.07zm-4.33-4.116h-7.623v-4.11h7.622v4.11zM56.103 9.75h7.622v4.07h-7.622V9.75zM21.127 3.507l6.003 5.947h-8.723v24.738l-2.998 2.986-2.998-2.986V9.46H3.694l5.97-5.947 11.463-.006zM9.538 23.09l2.78 2.769-4.126 4.13-4.498-4.48V11.877h5.844V23.09zM21.28 11.86h5.818v13.65L22.6 29.99l-4.126-4.13 2.78-2.768.026-11.232zM22.453.296H8.344L.47 8.146V26.85l14.94 14.854 14.938-14.853V8.145L22.453.295zm6.269 25.874L15.409 39.445 2.082 26.17V8.8l6.926-6.9H21.79l6.945 6.9-.013 17.371zm77.192-9.29h4.033v9.25h14.361v-9.25h4.186v-3.964h-4.186V5.595h-5.161v7.34h-4.053v-7.34h-5.147v7.34h-4.033v-7.34h-5.187v7.34h-1.208V16.9h1.208v16.816h25.803v-4.328h-20.616V16.88zm9.18 0h4.053v4.407h-4.053V16.88zm41.446 1.883V5.595h-26.806v13.168h6.813c-.524.575-2.282 1.48-2.965 1.983a26.776 26.776 0 0 1-5.433 3.105 17.863 17.863 0 0 1 1.99 3.733 33.885 33.885 0 0 0 7.071-3.905v1.983c0 1.321-.743 2.226-1.924 3.026-1.18.8-2.295 1.156-4.802 1.982.995 1.665 1.386 2.332 2.408 4.282 4.172-1.454 5.638-2.465 7.23-4.236 1.725-1.936 1.924-3.581 1.924-5.887v-3.892h-1.645a20.07 20.07 0 0 0 1.744-2.174h2.654c.749.76 1.446 1.44 2.215 2.174h-1.652v12.819h5.247v-9.76a42.588 42.588 0 0 0 5.546 3.555 23.331 23.331 0 0 1 2.375-4.281 34.446 34.446 0 0 1-7.138-4.526l5.148.02zm-16.246-3.422h-5.445v-1.797h5.445v1.797zm0-4.48h-5.445V9.064h5.445v1.797zm5.307-1.79h5.811v1.79h-5.811V9.07zm0 6.27v-1.797h5.811v1.797h-5.811zM95.088 25.444c.093.614.111 1.237.053 1.856a4.369 4.369 0 0 1-.484 1.982 2.935 2.935 0 0 1-1.81.536h-.492a2.768 2.768 0 0 1-1.99-.496A2.18 2.18 0 0 1 90.007 28v-4.149h6.076V12.936h-9.147v-1.322h12.41V7.36h-12.41V5.311h-5.148v2.048h-12.43v4.268h12.43v1.322h-9.14V23.85h5.917a6.597 6.597 0 0 1-1.818 3.892 11.546 11.546 0 0 1-6.076 2.53c.71.873 2.998 3.853 3.15 4.084 1.891-.615 4.604-1.731 6.243-3.416a11.45 11.45 0 0 0 3.144-7.09h2.54v4.625c0 .661 0 3.178 1.838 4.454a8.463 8.463 0 0 0 4.517 1.156h.85c.961 0 3.137-.126 4.643-1.546 1.214-1.143 1.658-3.416 1.804-5.286-.385-.106-1.061-.383-2.176-.786a13.051 13.051 0 0 1-2.136-1.024zm-17.81-5.656v-2.736H91.48v2.736H77.278zm-26.354 9.554h18.195v4.295H49.252v-3.212c-.663.265-7.522 2.643-8.564 2.815l-.437-4.321a32.222 32.222 0 0 0 3.217-.958V17.93h-2.78v-4.11h2.773V5.297h4.524v8.524h2.746v4.11h-2.74v8.233a22.28 22.28 0 0 0 2.767-1.48c.02 1.566.14 4.208.166 4.658z" fill="#666666"/></svg>